# xmcd CD database file
#
# Track frame offsets:
#	183
#	17408
#	44305
#	64563
#	79015
#	92335
#	111435
#	132465
#	148873
#	167995
#	183215
#	200903
#	214123
#	230508
#	246850
#
# Disc length: 3508 seconds
#
# Revision: 0
# Processed by: cddbd v1.4PL0 Copyright (c) Steve Scherf et al.
# Submitted via: CDex 1.51
#
DISCID=d30db20f
DTITLE=Miles Davis Nonet - Cool Boppin'
DYEAR=1991
DGENRE=Jazz
TTITLE0=Why Do I Love You
TTITLE1=Godchild
TTITLE2=S'il Vous Plait
TTITLE3=Moondeams
TTITLE4=Budo
TTITLE5=Darn That Dream
TTITLE6=Move
TTITLE7=Moondreams
TTITLE8=Budo
TTITLE9=Good Bait
TTITLE10=Focus
TTITLE11=April In Paris
TTITLE12=Webb's Delight
TTITLE13=Milano
TTITLE14=Casbah
EXTD=YEAR: 1991
EXTT0=
EXTT1=
EXTT2=
EXTT3=
EXTT4=
EXTT5=
EXTT6=
EXTT7=
EXTT8=
EXTT9=
EXTT10=
EXTT11=
EXTT12=
EXTT13=
EXTT14=
PLAYORDER=
